<?xml version="1.0" encoding="UTF-8" standalone="no"?>
<!DOCTYPE svg PUBLIC "-//W3C//DTD SVG 1.1//EN" "http://www.w3.org/Graphics/SVG/1.1/DTD/svg11.dtd">
<svg
   xmlns:svg="http://www.w3.org/2000/svg"
   xmlns="http://www.w3.org/2000/svg"
   version="1.1"
   id="svg22921"
   width="1000"
   height="559.55676">
  <defs
     id="defs22923">
    <clipPath
       id="clipPath6460"
       clipPathUnits="userSpaceOnUse">
      <path
         id="path6462"
         d="m 432.246,390.427 7.329,0 0,-8.221 -7.329,0 0,8.221 z" />
    </clipPath>
    <clipPath
       id="clipPath6444"
       clipPathUnits="userSpaceOnUse">
      <path
         id="path6446"
         d="m 423.179,390.517 7.469,0 0,-8.401 -7.469,0 0,8.401 z" />
    </clipPath>
    <clipPath
       id="clipPath6428"
       clipPathUnits="userSpaceOnUse">
      <path
         id="path6430"
         d="m 416.093,390.427 6.474,0 0,-8.221 -6.474,0 0,8.221 z" />
    </clipPath>
    <clipPath
       id="clipPath6324"
       clipPathUnits="userSpaceOnUse">
      <path
         id="path6326"
         d="m 441.164,390.427 5.987,0 0,-8.221 -5.987,0 0,8.221 z" />
    </clipPath>
  </defs>
  <path
     d="M 138.75222,559.55678 C 62.24335,559.55678 0,501.40571 0,429.90036 L 0,128.12668 C 0,57.48956 57.48873,0 128.12668,0 L 871.87332,0 C 942.50961,0 1000,57.48956 1000,128.12668 l 0,285.50461 c 0,70.65779 -57.49039,128.12668 -128.12668,128.12668 l -650.61893,0 c -21.27093,11.65915 -45.33344,17.79881 -69.91359,17.79881 l -12.58858,0 z"
     style="fill:#706d6e;fill-opacity:1;fill-rule:nonzero;stroke:none"
     id="path6310" />
  <path
     d="m 871.86174,17.55488 -743.72514,0 c -60.96333,0 -110.57675,49.61343 -110.57675,110.57593 l 0,285.50461 0,0.0165 0,16.2484 c 0,61.81006 54.36805,112.10567 121.1808,112.10567 l 12.59023,0 c 24.04101,0 46.4084,-6.59445 65.2615,-17.79881 l 655.26936,0 c 60.96333,0 110.55526,-49.61343 110.55526,-110.57593 l 0,-285.50461 c 0,-60.9625 -49.59193,-110.57593 -110.55526,-110.57593"
     style="fill:#ffffff;fill-opacity:1;fill-rule:nonzero;stroke:none"
     id="path6314" />
  <path
     d="m 871.86174,484.81217 -105.90317,0 0,-288.48142 105.90317,0 c 39.31865,0 71.19527,31.87663 71.19527,71.21595 l 0,146.09087 c 0,39.29797 -31.87662,71.1746 -71.19527,71.1746"
     style="fill:#ef3120;fill-opacity:1;fill-rule:nonzero;stroke:none"
     id="path6318" />
  <g
     style="opacity:0.39999402"
     id="g6330"
     clip-path="url(#clipPath6324)"
     transform="matrix(20.672262,0,0,-20.672262,-8326.8497,8326.8511)">
    <g
       id="g6332"
       transform="translate(446.1124,389.4265)">
      <path
         id="path6334"
         style="fill:#ffffff;fill-opacity:1;fill-rule:nonzero;stroke:none"
         d="m 0,0 -3.949,0 0,-6.22 3.987,0 0,0.938 -2.786,0 0,1.829 1.951,0 0,0.938 -1.951,0 0,1.578 2.748,0 L 0,0 Z" />
    </g>
  </g>
  <path
     style="fill:#706d6e;fill-opacity:1;fill-rule:nonzero;stroke:none"
     d="m 459.79907,67.38992 c -3.4316,0 -6.66309,0.48125 -9.72258,1.45367 -3.081,0.97077 -5.7717,2.39385 -8.10849,4.2957 -2.31529,1.92252 -4.15926,4.27155 -5.52363,7.04163 -1.33956,2.79076 -2.03415,5.95477 -2.03415,9.59309 0,2.58403 0.38037,4.81928 1.12457,6.78315 0.7442,1.92252 1.87373,3.64724 3.42498,5.13565 1.55456,1.4884 3.49775,2.80382 5.81304,3.94079 2.33679,1.1163 5.0738,2.17307 8.23749,3.16534 2.37648,0.68136 4.58262,1.32633 6.58866,1.90598 2.00438,0.57882 3.74416,1.2238 5.23256,1.90598 1.47187,0.66152 2.66093,1.43549 3.48783,2.26105 0.84342,0.84674 1.25687,1.9164 1.25687,3.19759 0,3.43159 -2.80812,5.13581 -8.43098,5.13581 -2.64605,0 -5.26398,-0.35225 -7.84884,-1.03361 -2.58321,-0.72435 -4.91008,-1.54463 -6.9773,-2.45471 -2.06723,-0.90957 -3.80535,-1.80262 -5.23257,-2.71335 -1.40571,-0.88974 -2.30537,-1.5314 -2.61628,-1.84182 l -6.97564,13.85687 c 2.00438,1.34452 4.19068,2.57212 6.58866,3.58539 2.39798,1.03362 4.84227,1.92451 7.36428,2.64853 2.52202,0.7442 5.0953,1.33957 7.71985,1.71167 2.60471,0.3936 5.16642,0.58047 7.68843,0.58047 3.30756,0 6.51424,-0.37375 9.65643,-1.09811 3.12234,-0.7442 5.87092,-1.96386 8.2689,-3.61764 2.37814,-1.65378 4.31472,-3.77294 5.78327,-6.46033 1.4388,-2.66672 2.16315,-5.96519 2.16315,-9.85158 0,-3.16285 -0.51267,-5.86579 -1.52148,-8.13974 -0.99227,-2.25328 -2.43602,-4.17844 -4.29652,-5.74937 -1.882,-1.59094 -4.13776,-2.93033 -6.78381,-4.00529 -2.64605,-1.05511 -5.59474,-2.05069 -8.88246,-2.93927 -2.33514,-0.66151 -4.41229,-1.22876 -6.1686,-1.74474 -1.77782,-0.51598 -3.25795,-1.06007 -4.45694,-1.68073 -1.19072,-0.62017 -2.13834,-1.31311 -2.77835,-2.09948 l -0.97573,-2.90685 c 0,-1.88118 0.7442,-3.29218 2.19622,-4.26378 1.45533,-0.95092 3.52586,-1.45367 6.2331,-1.45367 2.06722,0 4.13445,0.29272 6.20168,0.8732 2.06722,0.57882 3.98065,1.2486 5.71712,2.03415 1.73647,0.76404 3.20337,1.52644 4.36102,2.22863 l 2.13172,1.45367 6.87973,-13.17864 c -1.4884,-0.88809 -3.15707,-1.80263 -5.03907,-2.7132 -1.88035,-0.88973 -3.85496,-1.71993 -5.94203,-2.42262 -2.10858,-0.72436 -4.33953,-1.31145 -6.65482,-1.74474 -2.33514,-0.47629 -4.70997,-0.67805 -7.17079,-0.67805 z m 65.40703,0.18687 c -5.22925,0 -9.89292,1.01873 -13.98602,3.0041 -4.11296,2.00521 -7.60078,4.6033 -10.43205,7.84884 -2.85278,3.22487 -5.00435,6.92141 -6.49275,11.01451 -1.4884,4.11378 -2.22929,8.20408 -2.22929,12.33853 0,4.38252 0.81035,8.72651 2.42279,12.98499 1.60416,4.25849 3.87811,8.06483 6.75073,11.43441 2.87427,3.34891 6.30256,6.04904 10.27163,8.07492 3.96908,2.04655 8.33837,3.06859 13.11449,3.06859 2.70723,0 5.48889,-0.34399 8.30032,-1.06504 2.81143,-0.70285 5.45748,-1.75714 7.97949,-3.10084 2.50052,-1.36437 4.75463,-3.01318 6.71766,-5.03907 1.98454,-1.98453 3.48783,-4.26096 4.52144,-6.78298 l -13.08141,-7.65519 c -0.64497,1.73647 -1.50494,3.19395 -2.5187,4.39294 -1.05843,1.19899 -2.2078,2.18332 -3.48948,2.90685 -1.30649,0.7442 -2.65101,1.31641 -4.03688,1.64717 -1.38918,0.3721 -2.72378,0.55071 -4.00546,0.55071 -2.52202,0 -4.8125,-0.57552 -6.87973,-1.71167 -2.06723,-1.1163 -3.83016,-2.66424 -5.29706,-4.58676 -1.43879,-1.94319 -2.58486,-4.16422 -3.3919,-6.68623 -0.81036,-2.52202 -1.19073,-5.14078 -1.19073,-7.84885 0,-2.52201 0.3473,-5.00153 1.02535,-7.46153 0.67805,-2.46 1.67197,-4.64613 3.03469,-6.58932 1.33956,-1.94319 3.06941,-3.50784 5.13664,-4.74817 2.06723,-1.22049 4.53301,-1.84182 7.36429,-1.84182 1.24033,0 2.52367,0.14884 3.90788,0.42006 1.38918,0.28941 2.73535,0.80539 4.03853,1.5496 1.27342,0.7442 2.48894,1.7406 3.5854,2.93943 1.0915,1.19899 2.011,2.67036 2.7122,4.48952 l 12.20987,-8.52706 c -2.19126,-4.44454 -5.55009,-8.06219 -10.07815,-10.85294 -4.50655,-2.77009 -9.84826,-4.16687 -15.98875,-4.16687 z m 63.47046,0 c -4.77446,0 -9.21156,0.95258 -13.24348,2.87477 -4.03026,1.88118 -7.49658,4.45099 -10.43205,7.65519 -2.93546,3.2042 -5.25902,6.8827 -6.9128,11.07917 -1.65378,4.21698 -2.45421,8.55418 -2.45421,13.08141 0,4.46521 0.79381,8.8092 2.38971,12.98499 1.57109,4.19647 3.81362,7.94195 6.68624,11.20817 2.87427,3.26622 6.29429,5.87589 10.30471,7.8811 4.01042,2.0052 8.47232,3.00409 13.37082,3.00409 4.77612,0 9.19171,-0.94266 13.24347,-2.90702 4.03192,-1.92252 7.48667,-4.48323 10.40063,-7.68743 2.89412,-3.2042 5.16145,-6.89429 6.81523,-11.11143 1.65378,-4.19647 2.48729,-8.53367 2.48729,-13.08157 0,-4.3205 -0.77728,-8.59453 -2.32522,-12.791 -1.55455,-4.19647 -3.78054,-7.95386 -6.65316,-11.24075 -2.87427,-3.28689 -6.29429,-5.91971 -10.30471,-7.94559 -4.01041,-1.98454 -8.45247,-3.0041 -13.37247,-3.0041 z m -493.518,0.38699 0,68.79977 15.92425,0 0,-39.3418 31.68645,39.3418 12.75892,0 0,-68.79977 -15.85976,0 0,40.40766 -32.10651,-40.40766 -12.40335,0 z m 72.51498,0 0,35.17509 c 0,4.52723 0.56229,8.85021 1.68025,12.98466 1.1411,4.11378 2.91065,7.77542 5.33013,10.9176 2.41783,3.12152 5.56663,5.63328 9.43151,7.49378 3.88639,1.88118 8.58478,2.80994 14.0836,2.80994 5.2921,0 9.84992,-0.90296 13.69496,-2.68078 3.84504,-1.77781 6.9955,-4.19895 9.49601,-7.29979 2.48067,-3.12151 4.32464,-6.71848 5.52363,-10.85293 1.19072,-4.11378 1.77616,-8.59718 1.77616,-13.37248 l 0,-35.17509 -15.85976,0 0,35.17509 c 0,2.50135 -0.2646,4.97805 -0.7442,7.3967 -0.49613,2.41866 -1.32302,4.57916 -2.48729,6.46033 -1.15764,1.88118 -2.66093,3.37322 -4.52143,4.48952 -1.88201,1.15765 -4.17249,1.71167 -6.87973,1.71167 -2.70889,0 -5.00765,-0.55237 -6.84831,-1.64717 -1.81916,-1.0948 -3.34394,-2.5971 -4.52144,-4.4576 -1.15764,-1.88118 -1.96965,-3.99735 -2.48728,-6.39534 -0.51267,-2.39798 -0.81035,-4.91255 -0.81035,-7.5586 l 0,-35.1751 -15.85811,0 z m 67.83148,0 0,13.95378 21.02617,0 0,54.84599 15.89284,0 0,-54.84599 20.89718,0 0,-13.95378 -57.81619,0 z m 65.66668,0 0,68.79977 15.92261,0 0,-22.19044 10.33613,0 13.85703,22.19044 17.96006,0 -15.82834,-25.58201 c 1.75797,-0.97077 3.33237,-2.16778 4.71659,-3.55282 1.38917,-1.38587 2.54847,-2.94703 3.5209,-4.6835 0.97573,-1.75715 1.71166,-3.60343 2.22929,-5.58797 0.51267,-1.96386 0.77728,-3.98726 0.77728,-6.13718 0,-2.8321 -0.54575,-5.66023 -1.68024,-8.43031 -1.12457,-2.77008 -2.71055,-5.27043 -4.71659,-7.46169 -2.00438,-2.19126 -4.35605,-3.96494 -7.10629,-5.32931 -2.74859,-1.34453 -5.75351,-2.03415 -8.97838,-2.03415 l -31.00839,0 z m 329.46294,0 0,68.79977 15.89283,0 0,-22.19044 10.36756,0 13.85703,22.19044 17.92698,0 -15.79526,-25.58201 c 1.73647,-0.97077 3.29929,-2.16778 4.68351,-3.55282 1.38917,-1.38587 2.60305,-2.94703 3.55397,-4.6835 0.97573,-1.75715 1.71167,-3.60343 2.22765,-5.58797 0.51267,-1.96386 0.77727,-3.98726 0.77727,-6.13718 0,-2.8321 -0.56228,-5.66023 -1.68024,-8.43031 -1.14111,-2.77008 -2.71054,-5.27043 -4.71658,-7.46169 -2.00438,-2.19126 -4.37756,-3.96494 -7.1063,-5.32931 -2.74858,-1.34453 -5.7535,-2.03415 -8.97837,-2.03415 l -31.0084,0 z m 65.89325,0 0,68.79977 48.35324,0 0,-13.95378 -32.46206,0 0,-14.63199 27.13358,0 0,-12.88775 -27.13358,0 0,-13.37247 31.59052,0 0,-13.95378 -47.4817,0 z m -329.46459,0.0331 0,68.76752 15.92425,0 0,-68.76752 -15.92425,0 z m 221.41977,13.72754 c 2.64605,0 5.00599,0.57387 7.07322,1.71167 2.06723,1.1163 3.807,2.6525 5.23256,4.55434 1.42226,1.92253 2.51871,4.08799 3.26291,6.58933 0.7442,2.48067 1.0915,5.04139 1.0915,7.68743 0,2.58404 -0.31422,5.10986 -1.00881,7.59053 -0.67805,2.50134 -1.71662,4.73395 -3.10084,6.71848 -1.40571,1.96387 -3.13391,3.54025 -5.20114,4.78059 -2.06722,1.22049 -4.47678,1.84181 -7.26671,1.84181 -2.70889,0 -5.12672,-0.56724 -7.23529,-1.74473 -2.08873,-1.15765 -3.81528,-2.6874 -5.20114,-4.65126 -1.38918,-1.92252 -2.48564,-4.15265 -3.22984,-6.65399 -0.7442,-2.48067 -1.09149,-5.04139 -1.09149,-7.68744 0,-2.58403 0.36383,-5.10985 1.05842,-7.59052 0.71112,-2.48067 1.7497,-4.73147 3.13391,-6.65399 1.38918,-1.94319 3.13226,-3.51676 5.19949,-4.71575 2.06722,-1.199 4.47678,-1.77583 7.26837,-1.77583 z m -271.38876,0.18688 14.0191,0 c 1.81916,0 3.48782,0.82524 5.03907,2.51954 1.55455,1.67445 2.35829,3.95088 2.35829,6.78298 0,2.79075 -0.71113,5.03775 -2.06723,6.81556 -1.33956,1.77782 -2.95199,2.68095 -4.8125,2.68095 l -14.53673,0 0,-18.79903 z m 329.43316,0 14.05053,0 c 1.79766,0 3.48782,0.82524 5.03907,2.51954 1.55455,1.67445 2.32521,3.95088 2.32521,6.78298 0,2.79075 -0.67805,5.03775 -2.03415,6.81556 -1.33956,1.77782 -2.96357,2.68095 -4.84558,2.68095 l -14.53508,0 0,-18.79903 z m -251.75011,21.22843 0,13.95394 29.84578,0 0,-13.95394 -29.84578,0 z"
     id="path6338" />
  <path
     d="m 411.33998,196.33902 -154.46315,0 c 9.92269,16.2484 15.64973,34.97747 15.64973,54.94687 l 0,178.60835 c 0,19.9694 -5.72704,38.6778 -15.64973,54.9262 l 154.46315,0 0,-288.48142 z"
     style="fill:#73c82c;fill-opacity:1;fill-rule:nonzero;stroke:none"
     id="path6410" />
  <path
     id="path6412"
     style="fill:#fbc707;fill-opacity:1;fill-rule:nonzero;stroke:none"
     d="m 588.64183,484.80803 -177.30516,0 0,-288.48141 177.30516,0 0,288.48141 z" />
  <path
     id="path6414"
     style="fill:#f47216;fill-opacity:1;fill-rule:nonzero;stroke:none"
     d="m 765.9685,484.80803 -177.32667,0 0,-288.48141 177.32667,0 0,288.48141 z" />
  <g
     style="opacity:0.39999402"
     id="g6434"
     clip-path="url(#clipPath6428)"
     transform="matrix(20.672262,0,0,-20.672262,-8326.8497,8326.8511)">
    <g
       id="g6436"
       transform="translate(418.2932,384.1443)">
      <path
         id="path6438"
         style="fill:#ffffff;fill-opacity:1;fill-rule:nonzero;stroke:none"
         d="m 0,0 0,1.757 0.591,0 C 1.688,1.749 2.046,1.424 2.046,0.91 2.046,0.271 1.576,0 0.666,0 L 0,0 Z m 0,2.623 0,1.722 0.357,0 c 0.947,0 1.331,-0.28 1.331,-0.839 0,-0.513 -0.365,-0.865 -1.134,-0.875 L 0,2.623 Z m 0.507,2.659 -1.707,0 0,-6.22 1.922,0 c 1.811,0 2.552,0.73 2.552,1.848 0,0.613 -0.338,1.1 -1.041,1.38 0.403,0.314 0.685,0.756 0.685,1.324 0,0.92 -0.648,1.668 -2.411,1.668" />
    </g>
  </g>
  <g
     style="opacity:0.39999402"
     id="g6450"
     clip-path="url(#clipPath6444)"
     transform="matrix(20.672262,0,0,-20.672262,-8326.8497,8326.8511)">
    <g
       id="g6452"
       transform="translate(427.134,389.5168)">
      <path
         id="path6454"
         style="fill:#ffffff;fill-opacity:1;fill-rule:nonzero;stroke:none"
         d="m 0,0 c -1.67,0 -2.955,-1.245 -2.955,-3.191 0,-1.957 1.182,-3.209 2.974,-3.209 1.154,0 1.979,0.45 2.495,1.306 L 1.613,-4.436 C 1.247,-5.03 0.741,-5.365 0.066,-5.365 c -1.145,0 -1.783,0.795 -1.783,2.182 0,1.298 0.657,2.146 1.67,2.146 0.666,0 1.154,-0.334 1.388,-0.901 l 1.145,0.423 C 2.111,-0.641 1.426,0 0,0" />
    </g>
  </g>
  <g
     style="opacity:0.39999402"
     id="g6466"
     clip-path="url(#clipPath6460)"
     transform="matrix(20.672262,0,0,-20.672262,-8326.8497,8326.8511)">
    <g
       id="g6468"
       transform="translate(434.4473,384.1443)">
      <path
         id="path6470"
         style="fill:#ffffff;fill-opacity:1;fill-rule:nonzero;stroke:none"
         d="m 0,0 0,4.327 0.675,0 C 2.167,4.327 2.889,3.533 2.889,2.171 2.889,0.928 2.111,0 0.525,0 L 0,0 Z m 0.685,5.282 -1.886,0 0,-6.22 1.754,0 c 2.224,0 3.574,1.325 3.574,3.109 0,1.948 -1.256,3.111 -3.442,3.111" />
    </g>
  </g>
  <path
     d="m 151.3375,520.86658 -12.59024,0 c -55.25613,0 -100.07359,-40.74503 -100.07359,-90.97863 l 0,-178.60834 c 0,-50.2336 44.81746,-90.97863 100.07359,-90.97863 l 12.59024,0 c 55.27762,0 100.07359,40.74503 100.07359,90.97863 l 0,178.60834 c 0,50.2336 -44.79597,90.97863 -100.07359,90.97863"
     style="fill:#0e8a4a;fill-opacity:1;fill-rule:nonzero;stroke:none"
     id="path6474" />
  <path
     d="m 65.44177,419.42365 63.52503,-171.43506 35.04031,0 63.0504,171.43506 -44.83896,0 -8.64101,-27.57679 -57.92368,0 -9.11564,27.57679 -41.09645,0 z m 61.89275,-62.61628 35.03866,0 -17.05379,-54.16132 -17.98487,54.16132 z"
     style="fill:#ffffff;fill-opacity:1;fill-rule:nonzero;stroke:none"
     id="path6478" />
</svg>
